<svg width="16" height="15" viewBox="0 0 16 15" fill="none" xmlns="http://www.w3.org/2000/svg">
<path d="M1.73486 6.26172C1.73486 3.41162 4.05176 1.09473 6.90186 1.09473C9.75195 1.09473 12.0688 3.41162 12.0688 6.26172C12.0688 7.37256 11.707 8.40088 11.104 9.23242L14.0049 12.1396C14.1763 12.3174 14.2651 12.5522 14.2651 12.8062C14.2651 13.333 13.8779 13.7393 13.3384 13.7393C13.0908 13.7393 12.8433 13.6567 12.6655 13.4727L9.74561 10.5527C8.93311 11.105 7.96191 11.4287 6.90186 11.4287C4.05176 11.4287 1.73486 9.11182 1.73486 6.26172ZM3.05518 6.26172C3.05518 8.38818 4.77539 10.1084 6.90186 10.1084C9.02832 10.1084 10.7485 8.38818 10.7485 6.26172C10.7485 4.13525 9.02832 2.41504 6.90186 2.41504C4.77539 2.41504 3.05518 4.13525 3.05518 6.26172Z" fill="black"/>
</svg>
